<svg xmlns="http://www.w3.org/2000/svg" version="1.1" xmlns:xlink="http://www.w3.org/1999/xlink" xmlns:svgjs="http://svgjs.dev/svgjs" width="128" height="128" viewBox="0 0 128 128"><g transform="matrix(0.8046875,0,0,0.8046875,12.333870967741937,30.180533506016047)"><svg viewBox="0 0 155 102" data-background-color="#0042c7" preserveAspectRatio="xMidYMid meet" height="84" width="128" xmlns="http://www.w3.org/2000/svg" xmlns:xlink="http://www.w3.org/1999/xlink"><g id="tight-bounds" transform="matrix(1,0,0,1,0.25,0.03409090909090651)"><svg viewBox="0 0 154.5 101.93181818181819" height="101.93181818181819" width="154.5"><g><svg viewBox="0 0 154.5 101.93181818181819" height="101.93181818181819" width="154.5"><g><svg viewBox="0 0 154.5 101.93181818181819" height="101.93181818181819" width="154.5"><g id="textblocktransform"><svg viewBox="0 0 154.5 101.93181818181819" height="101.93181818181819" width="154.5" id="textblock"><g><svg viewBox="0 0 154.5 101.93181818181819" height="101.93181818181819" width="154.5"><g transform="matrix(1,0,0,1,0,0)"><svg width="154.5" viewBox="3.1 -36.04 55.32 36.5" height="101.93181818181819" data-palette-color="#e1e1dd"><path d="M14.99-22.19L11.62-35.55 3.1-35.55 3.1 0 9.4 0 9.4-10.52 9.11-26.49 13.28-11.72 16.67-11.72 21.34-27.15 21.04-10.52 21.04 0 27.34 0 27.34-35.55 18.82-35.55 14.99-22.19ZM51.66-9.28L51.66-9.28Q51.66-8.33 51.27-7.53 50.88-6.74 50.14-6.18L50.14-6.18Q49.41-5.62 48.35-5.3 47.29-4.98 45.92-4.98L45.92-4.98Q44.38-4.98 43.1-5.32 41.82-5.66 40.92-6.4L40.92-6.4Q39.99-7.13 39.48-8.28 38.96-9.42 38.91-11.04L38.91-11.04 32.18-11.04Q32.18-8.28 33.24-6.23 34.3-4.17 36.13-2.66L36.13-2.66Q38.06-1.12 40.66-0.33 43.26 0.46 45.92 0.46L45.92 0.46Q48.63 0.46 50.93-0.18 53.22-0.83 54.88-2.1L54.88-2.1Q56.54-3.34 57.48-5.16 58.42-6.98 58.42-9.33L58.42-9.33Q58.42-12.04 57.18-14.11 55.93-16.19 53.83-17.75L53.83-17.75Q52.44-18.7 50.78-19.43 49.12-20.17 47.29-20.68L47.29-20.68Q45.58-21.14 44.22-21.68 42.87-22.22 41.92-22.88L41.92-22.88Q40.96-23.51 40.46-24.32 39.96-25.12 39.96-26.12L39.96-26.12Q39.96-27.08 40.34-27.89 40.72-28.71 41.45-29.32L41.45-29.32Q42.19-29.91 43.25-30.24 44.31-30.57 45.68-30.57L45.68-30.57Q47.17-30.57 48.28-30.16 49.39-29.76 50.14-29.05L50.14-29.05Q50.88-28.32 51.25-27.32 51.63-26.32 51.68-25.12L51.68-25.12 58.37-25.12Q58.37-27.51 57.44-29.52 56.52-31.52 54.86-32.98L54.86-32.98Q53.2-34.42 50.89-35.23 48.58-36.04 45.8-36.04L45.8-36.04Q43.11-36.04 40.82-35.34 38.52-34.64 36.84-33.35L36.84-33.35Q35.15-32.06 34.2-30.22 33.25-28.39 33.25-26.15L33.25-26.15Q33.25-24.19 33.97-22.53 34.69-20.87 36.11-19.51L36.11-19.51Q37.52-18.14 39.76-16.99 41.99-15.84 44.94-15.04L44.94-15.04Q46.85-14.53 48.13-13.93 49.41-13.33 50.22-12.62L50.22-12.62Q51-11.89 51.33-11.06 51.66-10.23 51.66-9.28Z" opacity="1" transform="matrix(1,0,0,1,0,0)" fill="#e1e1dd" class="wordmark-text-0" data-fill-palette-color="primary" id="text-0"></path></svg></g></svg></g></svg></g></svg></g><g></g></svg></g><defs></defs></svg><rect width="154.5" height="101.93181818181819" fill="none" stroke="none" visibility="hidden"></rect></g></svg></g></svg>